<svg width="60" height="60" viewBox="0 0 60 60" fill="none" xmlns="http://www.w3.org/2000/svg">
<rect width="60" height="60" rx="6" fill="url(#paint0_linear_3_762)"/>
<path d="M36.3333 47.5833V40.9721C36.3974 40.1575 36.2873 39.3386 36.0104 38.5698C35.7336 37.801 35.2962 37.1 34.7275 36.5133C40.0916 35.9154 45.7291 33.8825 45.7291 24.555C45.7287 22.1699 44.8112 19.8762 43.1666 18.1488C43.9454 16.062 43.8903 13.7555 43.0129 11.7083C43.0129 11.7083 40.997 11.1104 36.3333 14.2367C32.4178 13.1755 28.2904 13.1755 24.375 14.2367C19.7112 11.1104 17.6954 11.7083 17.6954 11.7083C16.8179 13.7555 16.7629 16.062 17.5416 18.1488C15.8848 19.889 14.9664 22.2034 14.9791 24.6063C14.9791 33.8654 20.6166 35.8983 25.9808 36.5646C25.4187 37.1454 24.9853 37.838 24.7086 38.5974C24.4319 39.3567 24.3183 40.1659 24.375 40.9721V47.5833M24.375 42.4583C15.8333 45.0208 15.8333 38.1875 12.4166 37.3333L24.375 42.4583Z" stroke="white" stroke-width="2" stroke-linecap="round" stroke-linejoin="round"/>
<defs>
<linearGradient id="paint0_linear_3_762" x1="-18.5" y1="-9" x2="73.5" y2="70" gradientUnits="userSpaceOnUse">
<stop stop-color="#9747FF"/>
<stop offset="1" stop-color="#BEA8DA"/>
</linearGradient>
</defs>
</svg>
